SCREEN ::
 
http://i.minus.com/iqTAKRBdUtA5X.png
 
http://i.minus.com/ibmGOTKYsJ9t2e.png
 
http://i.minus.com/i658X560n42qW.png
 
http://i.minus.com/ibsLkDfuERUhkb.png
 
http://i.minus.com/ibURMZqxFpSJv.png
 
http://i.minus.com/i96ULHZiCDpHB.png
 
http://i.minus.com/ibeOHqYwifVQ2o.png
 
http://i.minus.com/ibp3egMtsGB6JC.png
 
http://i.minus.com/ibzAnZYaTmdKBp.png
 
http://i.minus.com/i9w9776ARaX4i.jpg


General ::
Format                           : AVI
Format/Info                      : Audio Video Interleave
File size                        : 44.9 MiB
Duration                         : 4mn 7s
Overall bit rate                 : 1 522 Kbps


Video Info ::
ID                               : 0
Format                           : AVC
Format/Info                      : Advanced Video Codec
Format profile                   : High@L5.1
Format settings, CABAC           : Yes
Format settings, ReFrames        : 2 frames
Codec ID                         : H264
Duration                         : 10s 0ms
Bit rate                         : 1 318 Kbps
Width                            : 720 pixels
Height                           : 290 pixels
Display aspect ratio             : 2.483
Frame rate                       : 30.000 fps
Color space                      : YUV
Chroma subsampling               : 4:2:0
Bit depth                        : 8 bits
Scan type                        : Progressive
Bits/(Pixel*Frame)               : 0.210
Stream size                      : 38.9 MiB (87%)


Audio Info ::
ID                               : 1
Format                           : MPEG Audio
Format version                   : Version 1
Format profile                   : Layer 3
Codec ID                         : 55
Codec ID/Hint                    : MP3
Duration                         : 4mn 7s
Bit rate mode                    : Constant
Bit rate                         : 192 Kbps
Channel(s)                       : 2 channels
Sampling rate                    : 44.1 KHz
Compression mode                 : Lossy
Stream size                      : 5.67 MiB (13%)